<!-- icon666.com - MILLIONS OF FREE VECTOR ICONS -->
<svg version="1.1" id="Capa_1" xmlns="http://www.w3.org/2000/svg" xmlns:xlink="http://www.w3.org/1999/xlink" x="0px"
     y="0px" viewBox="0 0 512 512" style="enable-background:new 0 0 512 512;" xml:space="preserve"><path style="fill:#8f8043;" d="M409.14,457.871c-42.666,15.794-90.227-6.067-106.021-48.733s6.067-90.227,48.733-106.021 s90.227,6.067,106.021,48.733S451.806,442.077,409.14,457.871z"/>
    <path style="fill:#FFBC5E;"
          d="M496.47,407.094l-20.466-9.408c1.604-8.825,2.003-17.929,1.07-27.067l21.087-7.806 c5.028-1.861,7.595-7.446,5.733-12.473l-10.11-27.31c-1.861-5.028-7.446-7.595-12.473-5.733l-21.087,7.806 c-5.242-7.543-11.473-14.192-18.436-19.846l9.408-20.466c2.239-4.871,0.105-10.635-4.766-12.874l-26.46-12.162 c-4.871-2.239-10.635-0.105-12.874,4.766l-9.408,20.467c-8.825-1.604-17.929-2.003-27.067-1.07l-7.806-21.087 c-1.861-5.028-7.446-7.595-12.473-5.733l-27.31,10.11c-5.028,1.861-7.595,7.446-5.733,12.473l7.806,21.087 c-7.543,5.242-14.192,11.473-19.846,18.436l-14.067-6.466l-6.399-2.942c-4.871-2.239-10.635-0.105-12.874,4.766l-12.162,26.46 c-2.239,4.871-0.105,10.635,4.766,12.874l20.466,9.408c-1.604,8.825-2.003,17.929-1.07,27.067l-21.087,7.806 c-5.028,1.861-7.595,7.445-5.733,12.473l10.11,27.31c1.861,5.028,7.446,7.595,12.473,5.733l21.087-7.806 c5.242,7.543,11.473,14.192,18.436,19.846l-9.408,20.466c-2.239,4.871-0.105,10.635,4.766,12.874l26.46,12.162 c4.871,2.239,10.635,0.105,12.874-4.766l9.408-20.466c8.825,1.604,17.929,2.003,27.067,1.07l7.806,21.087 c1.861,5.028,7.446,7.595,12.473,5.733l27.31-10.11c5.028-1.861,7.595-7.446,5.733-12.473l-7.806-21.087 c7.543-5.242,14.192-11.473,19.846-18.436l20.466,9.408c4.871,2.239,10.635,0.105,12.874-4.766l12.162-26.46 C503.475,415.096,501.341,409.333,496.47,407.094z M404.085,444.217c-35.137,13.007-74.305-4.997-87.312-40.134 s4.997-74.305,40.134-87.313c35.137-13.007,74.305,4.997,87.312,40.134S439.222,431.21,404.085,444.217z"/>
    <path style="fill:#FFBC5E;"
          d="M457.873,351.85c-15.794-42.666-63.355-64.528-106.021-48.733 c-42.666,15.794-64.528,63.355-48.734,106.021s63.355,64.528,106.021,48.733C451.806,442.077,473.667,394.516,457.873,351.85z M404.085,444.217c-35.137,13.007-74.305-4.997-87.312-40.134s4.997-74.305,40.134-87.313c35.137-13.007,74.305,4.997,87.313,40.134 C457.226,392.041,439.222,431.21,404.085,444.217z"/>
    <path style="fill:#8f8043;"
          d="M208.621,253.926c-50.791,25.809-113.11,5.484-138.919-45.307S64.218,95.509,115.009,69.7 s113.11-5.484,138.919,45.307C279.737,165.799,259.412,228.117,208.621,253.926z"/>
    <path style="fill:#FFBC5E;"
          d="M241.112,251.719c8.505-7.504,15.775-16.094,21.717-25.44l26.444,8.625 c6.294,2.053,13.06-1.385,15.113-7.679l11.15-34.188c2.053-6.294-1.385-13.06-7.679-15.113l-26.444-8.624 c0.711-11.053-0.096-22.277-2.542-33.352l24.753-12.578c5.902-2.999,8.255-10.214,5.256-16.116l-16.29-32.059 c-2.999-5.902-10.214-8.255-16.116-5.256l-24.753,12.578c-7.504-8.505-16.094-15.774-25.44-21.717l8.624-26.444 c2.053-6.294-1.385-13.06-7.679-15.112l-34.188-11.15c-6.294-2.053-13.06,1.385-15.112,7.679l-8.625,26.444 c-11.053-0.71-22.277,0.097-33.352,2.542l-12.578-24.753c-2.999-5.902-10.214-8.255-16.116-5.256L75.196,31.038 c-5.902,2.999-8.255,10.214-5.256,16.116l12.578,24.754c-8.505,7.504-15.774,16.094-21.717,25.44L42.625,91.42l-8.269-2.697 c-6.294-2.053-13.06,1.385-15.112,7.679L8.094,130.59c-2.053,6.294,1.385,13.06,7.679,15.113l26.444,8.625 c-0.71,11.053,0.097,22.277,2.542,33.353l-24.753,12.577c-5.902,2.999-8.255,10.214-5.256,16.116l16.29,32.059 c2.999,5.902,10.214,8.255,16.116,5.256l24.753-12.578c7.504,8.505,16.094,15.774,25.44,21.717l-8.625,26.444 c-2.053,6.294,1.385,13.06,7.679,15.113l34.188,11.15c6.294,2.053,13.06-1.385,15.113-7.679l8.624-26.444 c11.053,0.71,22.277-0.097,33.353-2.542l12.578,24.753c2.999,5.902,10.214,8.255,16.116,5.256l32.059-16.29 c5.902-2.999,8.255-10.214,5.256-16.116L241.112,251.719z M199.825,236.616c-41.247,20.959-91.854,4.453-112.813-36.793 c-20.959-41.247-4.453-91.854,36.793-112.813c41.247-20.959,91.854-4.453,112.813,36.793 C257.577,165.05,241.072,215.658,199.825,236.616z"/>
    <path style="fill:#FFBC5E;"
          d="M253.928,115.008c-25.809-50.791-88.127-71.116-138.918-45.307s-71.116,88.127-45.308,138.918 c25.809,50.791,88.127,71.116,138.919,45.307C259.412,228.117,279.737,165.799,253.928,115.008z M199.825,236.616 c-41.247,20.959-91.854,4.453-112.813-36.793c-20.959-41.247-4.453-91.855,36.793-112.813 c41.247-20.959,91.854-4.453,112.813,36.793C257.577,165.05,241.072,215.657,199.825,236.616z"/>
    <path style="fill:#8f8043;"
          d="M162.014,364.685c-32.581,0-64.961-7.86-94.435-23.266c-4.895-2.558-6.789-8.6-4.23-13.495 c2.558-4.894,8.601-6.791,13.494-4.23c40.328,21.079,86.686,26.502,130.531,15.267c5.354-1.373,10.798,1.854,12.17,7.205 c1.37,5.35-1.855,10.798-7.205,12.169C195.762,362.583,178.86,364.685,162.014,364.685z"/>
    <path style="fill:#8f8043;"
          d="M509.824,249.769c-1.975,2.48-4.889,3.772-7.831,3.773c-2.183,0-4.38-0.711-6.221-2.176 c-37.69-29.997-84.741-45.314-132.518-43.152c-5.519,0.239-10.193-4.019-10.443-9.536c-0.251-5.517,4.019-10.193,9.535-10.444 c52.597-2.388,104.404,14.473,145.881,47.483C512.548,239.156,513.263,245.447,509.824,249.769z"/>
    <path d="M340.161,208.276l14.815-29.427c1.863-3.699,6.371-5.19,10.072-3.326c3.699,1.862,5.188,6.372,3.326,10.071l-6.359,12.63 c53.542-2.433,106.975,16.424,147.455,52.247c3.102,2.745,3.391,7.485,0.645,10.587c-1.481,1.675-3.546,2.53-5.619,2.53 c-1.767,0-3.54-0.621-4.968-1.883c-36.648-32.434-84.72-49.887-133.164-48.632l13.296,6.694c3.699,1.862,5.188,6.372,3.326,10.071 c-1.318,2.618-3.961,4.129-6.705,4.129c-1.134,0-2.285-0.258-3.367-0.803l-29.427-14.815 C339.788,216.485,338.299,211.976,340.161,208.276z M161.969,253.205c13.913,0,28.027-3.184,41.257-9.907 c5.683-2.888,11.063-6.366,15.991-10.34c3.225-2.6,3.73-7.322,1.131-10.546c-2.601-3.225-7.322-3.731-10.547-1.131 c-4.117,3.32-8.615,6.228-13.37,8.643c-11.061,5.621-22.855,8.283-34.487,8.282c-27.868-0.002-54.777-15.287-68.241-41.785 c-12.53-24.659-10.695-54.292,4.789-77.335c2.31-3.438,1.395-8.098-2.043-10.408c-3.436-2.31-8.097-1.396-10.408,2.042 c-18.512,27.551-20.701,62.993-5.711,92.496C96.441,234.92,128.628,253.206,161.969,253.205z M187.102,166.376l9.013,27.037 c1.31,3.929-0.813,8.177-4.743,9.487c-0.787,0.262-1.587,0.387-2.373,0.387c-3.141,0-6.066-1.987-7.114-5.13l-7.35-22.051h-25.427 l-7.35,22.051c-1.311,3.929-5.559,6.051-9.487,4.744c-3.929-1.31-6.053-5.557-4.743-9.487l9.01-27.029 c0.003-0.01,0.007-0.02,0.01-0.03l12.197-36.592c1.88-5.638,7.135-9.426,13.078-9.426c5.942,0,11.197,3.788,13.077,9.426 l12.203,36.609C187.101,166.373,187.101,166.374,187.102,166.376z M169.534,161.105l-7.714-23.141l-7.714,23.141H169.534z M117.351,99.67c3.11-2.223,6.427-4.233,9.856-5.976c37.56-19.084,83.643-4.055,102.728,33.504 c12.237,24.082,10.731,53.213-3.928,76.026c-2.239,3.485-1.229,8.125,2.255,10.364c1.255,0.807,2.659,1.191,4.048,1.191 c2.467,0,4.884-1.217,6.316-3.446c17.527-27.277,19.321-62.119,4.682-90.93c-22.834-44.935-77.967-62.913-122.896-40.082 c-4.098,2.082-8.061,4.485-11.782,7.143c-3.37,2.408-4.15,7.092-1.742,10.462C109.296,101.299,113.982,102.076,117.351,99.67z M400.419,358.94c0,2.433-0.447,4.759-1.226,6.927c10.818,3.56,18.653,13.754,18.653,25.749c0,14.946-12.159,27.106-27.105,27.106 h-28.32c-4.143,0-7.5-3.358-7.5-7.5V372.01v-26.141c0-4.142,3.357-7.5,7.5-7.5h17.427 C391.191,338.369,400.419,347.597,400.419,358.94z M369.921,364.511h9.928c3.071,0,5.57-2.499,5.57-5.571s-2.499-5.571-5.57-5.571 h-9.928V364.511z M390.741,379.511h-20.82v24.212h20.82c6.675,0,12.105-5.431,12.105-12.106S397.416,379.511,390.741,379.511z M354.304,309.732c-4.203,1.557-8.277,3.49-12.109,5.745c-3.569,2.102-4.76,6.699-2.658,10.268c2.102,3.57,6.7,4.759,10.267,2.659 c3.069-1.807,6.336-3.356,9.708-4.605c31.259-11.57,66.104,4.445,77.675,35.704c7.283,19.674,3.937,41.37-8.949,58.038 c-2.533,3.277-1.931,7.987,1.346,10.521c1.366,1.056,2.98,1.567,4.583,1.567c2.242,0,4.461-1.002,5.938-2.913 c16.072-20.788,20.24-47.861,11.148-72.42C436.811,315.28,393.321,295.287,354.304,309.732z M500.765,369.841l-15.801,5.849 c0.264,5.844,0.031,11.709-0.694,17.535l15.333,7.048c4.176,1.919,7.354,5.35,8.95,9.661c1.596,4.31,1.417,8.984-0.503,13.16l0,0 l-12.162,26.459c-1.92,4.176-5.35,7.355-9.661,8.95c-4.31,1.596-8.982,1.417-13.16-0.502l-15.333-7.047 c-3.95,4.346-8.249,8.34-12.855,11.945l5.849,15.8c3.293,8.899-1.267,18.818-10.163,22.111l-27.31,10.11 c-1.946,0.721-3.967,1.079-5.982,1.08c-2.447,0-4.887-0.529-7.178-1.582c-4.177-1.92-7.354-5.351-8.95-9.662l-5.849-15.799 c-5.842,0.264-11.707,0.032-17.535-0.694l-7.049,15.332c-1.919,4.176-5.35,7.354-9.66,8.95c-4.311,1.597-8.986,1.417-13.16-0.503 l-26.459-12.161c-4.177-1.92-7.355-5.351-8.951-9.661c-1.596-4.311-1.417-8.984,0.503-13.161l7.048-15.332 c-4.346-3.951-8.341-8.25-11.945-12.857l-15.801,5.849c-4.309,1.596-8.982,1.417-13.16-0.502c-4.177-1.92-7.354-5.351-8.95-9.662 l-10.109-27.308c-3.293-8.898,1.266-18.817,10.162-22.11l15.801-5.85c-0.263-5.842-0.03-11.708,0.695-17.534l-15.334-7.048 c-4.176-1.92-7.354-5.351-8.95-9.661s-1.417-8.984,0.503-13.161l12.162-26.459c3.962-8.621,14.202-12.411,22.82-8.448l15.334,7.048 c3.949-4.345,8.249-8.339,12.856-11.945l-5.849-15.801c-3.294-8.897,1.265-18.816,10.162-22.11l27.31-10.11 c4.31-1.596,8.982-1.417,13.16,0.502c4.176,1.919,7.354,5.351,8.95,9.661l5.849,15.8c5.844-0.263,11.709-0.032,17.536,0.694 l7.048-15.333c3.963-8.621,14.201-12.41,22.82-8.448l26.461,12.163c4.176,1.919,7.354,5.35,8.95,9.661s1.417,8.984-0.503,13.161 l-7.048,15.332c4.345,3.95,8.341,8.25,11.945,12.856l15.8-5.849c4.31-1.596,8.982-1.417,13.16,0.502 c4.176,1.919,7.354,5.351,8.95,9.661l10.109,27.31C514.221,356.628,509.662,366.547,500.765,369.841z M496.861,352.939 l-10.109-27.31c-0.263-0.708-0.77-1.065-1.148-1.239c-0.38-0.175-0.981-0.327-1.687-0.065l-21.088,7.806 c-3.207,1.188-6.81,0.054-8.763-2.754c-4.759-6.848-10.479-13.006-17.004-18.303c-2.659-2.158-3.519-5.844-2.088-8.955l9.408-20.466 c0.315-0.687,0.209-1.297,0.064-1.688c-0.145-0.391-0.461-0.923-1.147-1.239l-26.461-12.162c-1.101-0.506-2.419-0.022-2.927,1.084 l-9.407,20.466c-1.431,3.112-4.792,4.859-8.155,4.247c-8.267-1.502-16.668-1.835-24.965-0.987c-3.396,0.347-6.607-1.65-7.795-4.858 l-7.806-21.087c-0.263-0.708-0.77-1.065-1.148-1.239c-0.38-0.174-0.981-0.326-1.687-0.064l-27.31,10.11 c-0.708,0.262-1.064,0.769-1.239,1.148c-0.174,0.379-0.326,0.979-0.064,1.688l7.806,21.087c1.187,3.207,0.055,6.81-2.753,8.762 c-6.85,4.761-13.008,10.482-18.303,17.005c-2.158,2.659-5.843,3.518-8.954,2.087l-20.467-9.408 c-1.101-0.506-2.417-0.022-2.927,1.084l-12.162,26.459c-0.315,0.687-0.209,1.297-0.064,1.688s0.462,0.923,1.148,1.239l20.467,9.408 c3.111,1.43,4.858,4.786,4.246,8.155c-1.502,8.268-1.835,16.668-0.988,24.964c0.348,3.402-1.65,6.608-4.857,7.795l-21.087,7.806 c-1.141,0.422-1.726,1.695-1.303,2.836l10.109,27.309c0.263,0.709,0.77,1.065,1.147,1.24c0.379,0.174,0.981,0.327,1.688,0.064 l21.088-7.807c3.205-1.188,6.81-0.055,8.763,2.753c4.76,6.849,10.48,13.007,17.005,18.303c2.658,2.159,3.518,5.844,2.087,8.955 l-9.407,20.466c-0.508,1.106-0.022,2.419,1.084,2.927l26.459,12.162c0.686,0.315,1.297,0.209,1.687,0.064 c0.392-0.145,0.924-0.461,1.238-1.147l9.409-20.468c1.43-3.111,4.781-4.857,8.155-4.247c8.269,1.503,16.666,1.834,24.964,0.988 c0.257-0.026,0.512-0.039,0.766-0.039c3.108,0,5.932,1.932,7.029,4.896l7.807,21.087c0.263,0.709,0.77,1.065,1.147,1.24 c0.379,0.174,0.981,0.326,1.687,0.064l27.311-10.11c1.141-0.422,1.726-1.695,1.303-2.837l-7.806-21.085 c-1.187-3.207-0.055-6.811,2.753-8.763c6.849-4.758,13.006-10.479,18.303-17.004c2.158-2.658,5.843-3.519,8.954-2.087l20.467,9.407 c1.107,0.508,2.42,0.021,2.928-1.084l12.162-26.459l0,0c0.315-0.686,0.209-1.296,0.064-1.687s-0.461-0.923-1.147-1.239 l-20.468-9.408c-3.111-1.43-4.858-4.787-4.246-8.156c1.503-8.265,1.835-16.664,0.988-24.963c-0.348-3.402,1.65-6.608,4.857-7.795 l21.087-7.806C496.698,355.352,497.282,354.08,496.861,352.939z M230.982,338.403l-31.991-7.878 c-4.021-0.988-8.085,1.467-9.075,5.489c-0.99,4.022,1.467,8.085,5.489,9.076l14.451,3.559c-46.943,12.028-97.696,5.74-140.656-17.7 c-3.637-1.986-8.192-0.644-10.176,2.991c-1.983,3.636-0.645,8.192,2.992,10.176c30.92,16.871,65.596,25.496,100.297,25.496 c18.548,0,37.103-2.473,55.096-7.459l-3.381,13.73c-0.99,4.022,1.467,8.085,5.489,9.076c0.603,0.148,1.205,0.22,1.799,0.22 c3.371,0,6.434-2.289,7.276-5.708l7.878-31.991c0.476-1.932,0.165-3.973-0.864-5.675 C234.577,340.101,232.914,338.878,230.982,338.403z M411.763,432.232c-3.243,1.957-6.701,3.621-10.28,4.945 c-6.897,2.553-13.966,3.764-20.923,3.763c-24.576-0.001-47.733-15.105-56.752-39.466c-7.119-19.232-4.035-40.583,8.249-57.114 c2.471-3.325,1.778-8.023-1.546-10.494c-3.325-2.47-8.022-1.78-10.493,1.546c-15.322,20.619-19.164,47.261-10.276,71.269 c11.257,30.409,40.158,49.261,70.834,49.26c8.682,0,17.508-1.511,26.114-4.697c4.461-1.651,8.775-3.727,12.823-6.17 c3.547-2.14,4.686-6.75,2.546-10.296C419.919,431.232,415.309,430.092,411.763,432.232z M70.259,250.361l-19.699,10.01 c-9.577,4.866-21.332,1.035-26.2-8.545L8.07,219.768c-4.867-9.579-1.034-21.332,8.545-26.199l19.7-10.011 c-1.356-7.862-1.965-15.849-1.818-23.865l-21.042-6.863c-4.949-1.614-8.973-5.058-11.331-9.698 c-2.358-4.641-2.768-9.921-1.153-14.87l11.15-34.187c1.613-4.948,5.058-8.972,9.698-11.33c4.639-2.358,9.92-2.769,14.869-1.154 l21.044,6.863c4.604-6.559,9.806-12.652,15.538-18.204l-10.011-19.7c-2.357-4.64-2.768-9.921-1.153-14.87 c1.614-4.949,5.059-8.973,9.7-11.33l32.056-16.289c4.643-2.359,9.923-2.767,14.87-1.154c4.949,1.614,8.973,5.059,11.33,9.7 l10.01,19.699c7.862-1.356,15.845-1.966,23.865-1.817l6.864-21.044c3.331-10.216,14.354-15.815,24.567-12.483l34.187,11.15 c10.215,3.332,15.815,14.352,12.485,24.567l-6.864,21.044c6.559,4.605,12.652,9.806,18.205,15.538l19.7-10.011 c9.581-4.867,21.334-1.033,26.2,8.545l16.289,32.058c2.357,4.64,2.768,9.921,1.154,14.869c-1.614,4.949-5.059,8.973-9.699,11.331 l-19.699,10.01c1.356,7.864,1.965,15.852,1.817,23.865l21.043,6.863c10.216,3.332,15.815,14.353,12.483,24.568l-11.15,34.187 c-1.612,4.948-5.057,8.972-9.697,11.33c-4.641,2.358-9.921,2.769-14.87,1.154l-21.043-6.863c-4.606,6.56-9.807,12.654-15.539,18.204 l10.011,19.7c4.867,9.579,1.034,21.332-8.545,26.199l-32.058,16.29c-9.578,4.869-21.333,1.033-26.2-8.545l-10.01-19.7 c-7.864,1.356-15.856,1.959-23.865,1.818l-6.862,21.042c-1.614,4.949-5.059,8.973-9.699,11.331c-2.776,1.41-5.781,2.124-8.807,2.124 c-2.032,0-4.074-0.322-6.062-0.97l-34.187-11.15c-4.949-1.614-8.973-5.059-11.331-9.699c-2.357-4.641-2.767-9.921-1.152-14.869 l6.862-21.043C81.904,261.294,75.811,256.093,70.259,250.361z M68.518,234.42c1.079-0.548,2.242-0.814,3.394-0.814 c2.101,0,4.166,0.882,5.627,2.539c6.924,7.848,14.945,14.694,23.84,20.349c2.891,1.837,4.169,5.399,3.107,8.654l-8.624,26.444 c-0.372,1.14-0.278,2.355,0.265,3.424c0.543,1.068,1.47,1.861,2.608,2.233l34.187,11.15c1.141,0.372,2.356,0.277,3.425-0.266 c1.068-0.543,1.861-1.469,2.233-2.609l8.623-26.443c1.062-3.257,4.181-5.385,7.612-5.159c10.52,0.674,21.035-0.125,31.253-2.382 c3.337-0.736,6.754,0.878,8.304,3.926l12.578,24.753c1.12,2.206,3.828,3.087,6.032,1.967l32.058-16.29 c2.205-1.121,3.088-3.827,1.967-6.032l-12.578-24.753c-1.549-3.049-0.84-6.759,1.725-9.021c7.846-6.921,14.692-14.943,20.35-23.841 c1.838-2.89,5.4-4.167,8.654-3.106l26.443,8.624c1.141,0.372,2.355,0.277,3.424-0.266c1.068-0.542,1.861-1.469,2.232-2.608 l11.151-34.188c0.767-2.352-0.522-4.889-2.875-5.656l-26.443-8.624c-3.256-1.062-5.379-4.194-5.159-7.612 c0.677-10.518-0.125-21.034-2.381-31.254c-0.737-3.339,0.877-6.754,3.926-8.304l24.753-12.578c1.068-0.542,1.861-1.469,2.233-2.608 c0.371-1.139,0.276-2.355-0.267-3.424l-16.289-32.058c-1.122-2.207-3.828-3.088-6.032-1.967L255.12,89.198 c-3.046,1.548-6.759,0.84-9.021-1.725c-6.924-7.847-14.944-14.694-23.841-20.35c-2.89-1.837-4.168-5.399-3.105-8.655l8.625-26.444 c0.767-2.352-0.523-4.889-2.875-5.656l-34.187-11.15c-2.353-0.767-4.89,0.522-5.657,2.874l-8.625,26.444 c-1.062,3.255-4.161,5.38-7.611,5.159c-10.521-0.675-21.035,0.125-31.253,2.382c-3.339,0.738-6.754-0.878-8.304-3.926 l-12.578-24.754c-0.543-1.069-1.469-1.861-2.607-2.233c-1.141-0.371-2.356-0.277-3.425,0.266L78.599,37.722 c-1.069,0.543-1.862,1.47-2.233,2.609c-0.372,1.14-0.277,2.355,0.266,3.424L89.21,68.508c1.549,3.048,0.84,6.759-1.725,9.021 c-7.848,6.924-14.694,14.945-20.349,23.84c-1.837,2.891-5.4,4.167-8.654,3.106l-26.444-8.624c-2.352-0.766-4.891,0.522-5.656,2.874 L15.23,132.913c-0.371,1.139-0.276,2.354,0.267,3.423c0.543,1.069,1.469,1.862,2.608,2.233l26.443,8.624 c3.256,1.062,5.379,4.194,5.159,7.611c-0.676,10.523,0.126,21.038,2.382,31.254c0.738,3.339-0.877,6.755-3.926,8.304L23.41,206.941 c-2.205,1.121-3.088,3.827-1.967,6.032l16.29,32.058c1.119,2.205,3.827,3.086,6.032,1.967L68.518,234.42z"/></svg>